<svg width="46" height="46" viewBox="0 0 46 46" fill="none" xmlns="http://www.w3.org/2000/svg">
<path d="M45.4381 23.5613L43.5214 21.6446L29.157 7.2802C29.1551 7.27828 29.1531 7.27637 29.1503 7.27349L24.3548 2.478L22.4381 0.561342C21.6906 -0.187114 20.4755 -0.187114 19.728 0.561342C18.9795 1.3098 18.9795 2.52304 19.728 3.2715L20.5665 4.11004L3.48425 31.4407L3.2715 31.2279C2.524 30.4795 1.30884 30.4795 0.561342 31.2279C-0.187114 31.9764 -0.187114 33.1896 0.561342 33.9381L2.478 35.8547L10.1446 43.5214L12.0613 45.438C12.4351 45.8128 12.9257 45.9996 13.4164 45.9996C13.9071 45.9996 14.3977 45.8128 14.7715 45.438C15.5199 44.6896 15.5199 43.4763 14.7715 42.7279L14.5587 42.5151L16.8788 41.0652C17.9273 43.4045 20.2742 45.0413 22.9997 45.0413C26.6989 45.0413 29.708 42.0321 29.708 38.333C29.708 36.7096 29.1253 35.2079 28.1354 34.0291L41.8894 25.4329L42.7279 26.2714C43.1016 26.6461 43.5923 26.833 44.083 26.833C44.5736 26.833 45.0643 26.6461 45.4381 26.2714C46.1865 25.523 46.1865 24.3097 45.4381 23.5613ZM22.9997 41.208C21.6398 41.208 20.4985 40.2592 20.2004 38.9885L24.8148 36.1049C25.4703 36.6425 25.8747 37.4609 25.8747 38.333C25.8747 39.9181 24.5848 41.208 22.9997 41.208ZM23.0227 32.7038L17.2114 36.3339C17.2066 36.3368 17.2037 36.3406 17.1989 36.3435L11.7767 39.7322L6.26628 34.2217L23.3485 6.89112L25.3256 8.86815L16.6134 21.9359C16.0259 22.8167 16.2645 24.0069 17.1453 24.5934C17.4711 24.8129 17.841 24.9164 18.2061 24.9164C18.8252 24.9164 19.4337 24.6164 19.8027 24.0625L28.0894 11.6329L39.1073 22.6509L23.0227 32.7038Z" fill="#7186A0"/>
</svg>
